<svg width="170" height="31" viewBox="0 0 170 31" fill="none" xmlns="http://www.w3.org/2000/svg">
<g filter="url(#filter0_d_167_565)">
<path d="M13.7933 3.85958C14.0931 2.9393 15.3951 2.9393 15.6949 3.85958L17.446 9.23398C17.5801 9.64561 17.9639 9.92418 18.3968 9.92418H24.0576C25.0269 9.92418 25.4293 11.1652 24.6443 11.734L20.0694 15.0486C19.7179 15.3033 19.5709 15.7555 19.7053 16.1682L21.4539 21.5349C21.7539 22.4557 20.7006 23.2227 19.9164 22.6544L15.3308 19.3321C14.9808 19.0784 14.5074 19.0784 14.1574 19.3321L9.57183 22.6544C8.78757 23.2227 7.73428 22.4557 8.0343 21.5348L9.78288 16.1682C9.91733 15.7555 9.77025 15.3033 9.41879 15.0486L4.84392 11.734C4.05891 11.1652 4.46124 9.92418 5.43064 9.92418H11.0914C11.5243 9.92418 11.9081 9.64561 12.0422 9.23398L13.7933 3.85958Z" fill="#070707"/>
<path d="M48.8902 3.85958C49.1901 2.9393 50.492 2.9393 50.7918 3.85958L52.5429 9.23398C52.677 9.64561 53.0608 9.92418 53.4937 9.92418H59.1545C60.1239 9.92418 60.5262 11.1652 59.7412 11.734L55.1663 15.0486C54.8149 15.3033 54.6678 15.7555 54.8022 16.1682L56.5508 21.5349C56.8508 22.4557 55.7975 23.2227 55.0133 22.6544L50.4277 19.3321C50.0777 19.0784 49.6043 19.0784 49.2543 19.3321L44.6688 22.6544C43.8845 23.2227 42.8312 22.4557 43.1312 21.5348L44.8798 16.1682C45.0143 15.7555 44.8672 15.3033 44.5157 15.0486L39.9408 11.734C39.1558 11.1652 39.5582 9.92418 40.5276 9.92418H46.1883C46.6212 9.92418 47.005 9.64561 47.1391 9.23398L48.8902 3.85958Z" fill="#070707"/>
<path d="M83.9874 3.85958C84.2872 2.9393 85.5891 2.9393 85.889 3.85958L87.6401 9.23398C87.7742 9.64561 88.158 9.92418 88.5909 9.92418H94.2516C95.221 9.92418 95.6234 11.1652 94.8384 11.734L90.2635 15.0486C89.912 15.3033 89.7649 15.7555 89.8994 16.1682L91.648 21.5349C91.948 22.4557 90.8947 23.2227 90.1105 22.6544L85.5249 19.3321C85.1749 19.0784 84.7015 19.0784 84.3515 19.3321L79.7659 22.6544C78.9817 23.2227 77.9284 22.4557 78.2284 21.5348L79.977 16.1682C80.1114 15.7555 79.9643 15.3033 79.6129 15.0486L75.038 11.734C74.253 11.1652 74.6553 9.92418 75.6247 9.92418H81.2855C81.7184 9.92418 82.1022 9.64561 82.2363 9.23398L83.9874 3.85958Z" fill="#070707"/>
<path d="M119.085 3.85958C119.384 2.9393 120.686 2.9393 120.986 3.85958L122.737 9.23398C122.871 9.64561 123.255 9.92418 123.688 9.92418H129.349C130.318 9.92418 130.721 11.1652 129.936 11.734L125.361 15.0486C125.009 15.3033 124.862 15.7555 124.997 16.1682L126.745 21.5349C127.045 22.4557 125.992 23.2227 125.208 22.6544L120.622 19.3321C120.272 19.0784 119.799 19.0784 119.449 19.3321L114.863 22.6544C114.079 23.2227 113.026 22.4557 113.326 21.5348L115.074 16.1682C115.209 15.7555 115.062 15.3033 114.71 15.0486L110.135 11.734C109.35 11.1652 109.753 9.92418 110.722 9.92418H116.383C116.816 9.92418 117.199 9.64561 117.333 9.23398L119.085 3.85958Z" fill="#070707"/>
<path d="M154.182 3.85958C154.482 2.9393 155.783 2.9393 156.083 3.85958L157.834 9.23398C157.969 9.64561 158.352 9.92418 158.785 9.92418H164.446C165.415 9.92418 165.818 11.1652 165.033 11.734L160.458 15.0486C160.106 15.3033 159.959 15.7555 160.094 16.1682L161.842 21.5349C162.142 22.4557 161.089 23.2227 160.305 22.6544L155.719 19.3321C155.369 19.0784 154.896 19.0784 154.546 19.3321L149.96 22.6544C149.176 23.2227 148.123 22.4557 148.423 21.5348L150.171 16.1682C150.306 15.7555 150.159 15.3033 149.807 15.0486L145.232 11.734C144.447 11.1652 144.85 9.92418 145.819 9.92418H151.48C151.913 9.92418 152.297 9.64561 152.431 9.23398L154.182 3.85958Z" fill="#E5E5E5"/>
</g>
<defs>
<filter id="filter0_d_167_565" x="0.428711" y="3.16992" width="169.019" height="27.6797" filterUnits="userSpaceOnUse" color-interpolation-filters="sRGB">
<feFlood flood-opacity="0" result="BackgroundImageFix"/>
<feColorMatrix in="SourceAlpha" type="matrix" values="0 0 0 0 0 0 0 0 0 0 0 0 0 0 0 0 0 0 127 0" result="hardAlpha"/>
<feOffset dy="4"/>
<feGaussianBlur stdDeviation="2"/>
<feComposite in2="hardAlpha" operator="out"/>
<feColorMatrix type="matrix" values="0 0 0 0 0 0 0 0 0 0 0 0 0 0 0 0 0 0 0.25 0"/>
<feBlend mode="normal" in2="BackgroundImageFix" result="effect1_dropShadow_167_565"/>
<feBlend mode="normal" in="SourceGraphic" in2="effect1_dropShadow_167_565" result="shape"/>
</filter>
</defs>
</svg>
