<svg width="80" height="80" viewBox="0 0 80 80" fill="none" xmlns="http://www.w3.org/2000/svg">
<path d="M39.2927 70.3736L39.9998 71.0807L40.7069 70.3736L57.2069 53.8736L57.2069 53.8736C60.6098 50.4704 62.9271 46.1346 63.8658 41.4145C64.8045 36.6943 64.3224 31.8018 62.4806 27.3556C60.6388 22.9094 57.52 19.1092 53.5184 16.4356C49.5169 13.7619 44.8124 12.3348 39.9998 12.3348C35.1872 12.3348 30.4827 13.7619 26.4812 16.4356C22.4796 19.1092 19.3608 22.9094 17.519 27.3556C15.6772 31.8018 15.1951 36.6943 16.1339 41.4145C17.0726 46.1346 19.3898 50.4704 22.7927 53.8736L22.7927 53.8736L39.2927 70.3736ZM39.9998 77.6789L19.4936 57.1727C15.4379 53.117 12.676 47.9497 11.557 42.3242C10.4381 36.6988 11.0124 30.8679 13.2073 25.5688C15.4023 20.2698 19.1193 15.7406 23.8883 12.5541C28.6573 9.36756 34.2642 7.66675 39.9998 7.66675C45.7354 7.66675 51.3423 9.36756 56.1113 12.5541C60.8803 15.7407 64.5973 20.2698 66.7923 25.5688C68.9872 30.8679 69.5615 36.6988 68.4426 42.3242C67.3237 47.9497 64.5617 53.117 60.506 57.1727L39.9998 77.6789ZM39.9998 48.9998C36.7288 48.9998 33.5918 47.7004 31.2788 45.3875C28.9659 43.0745 27.6665 39.9375 27.6665 36.6665C27.6665 33.3955 28.9659 30.2585 31.2788 27.9455C33.5918 25.6326 36.7288 24.3332 39.9998 24.3332C43.2708 24.3332 46.4078 25.6326 48.7208 27.9455C51.0337 30.2585 52.3331 33.3955 52.3331 36.6665C52.3331 39.9375 51.0337 43.0745 48.7208 45.3875C46.4078 47.7004 43.2708 48.9998 39.9998 48.9998Z" fill="#1E80F6" stroke="white" stroke-width="2"/>
</svg>
