<svg width="80" height="80" viewBox="0 0 80 80" fill="none" xmlns="http://www.w3.org/2000/svg">
<path d="M23.0793 52.0116L23.2561 52.1883L23.4329 52.0116L30.7231 44.7214L30.5463 44.5446L30.7231 44.7214C32.1997 43.2446 33.2053 41.3631 33.6126 39.3148C34.02 37.2666 33.8108 35.1435 33.0116 33.2141C32.2123 31.2847 30.8589 29.6356 29.1224 28.4754C27.386 27.3152 25.3445 26.6959 23.2561 26.6959C21.1677 26.6959 19.1262 27.3152 17.3898 28.4754C15.6533 29.6356 14.2999 31.2847 13.5007 33.2141C12.7014 35.1435 12.4923 37.2666 12.8996 39.3148C13.307 41.3631 14.3125 43.2446 15.7892 44.7214L15.966 44.5446L15.7892 44.7214L23.0793 52.0116ZM23.2561 55.6462L14.0603 46.4503C12.2415 44.6316 11.0029 42.3143 10.5012 39.7916C9.99938 37.269 10.2569 34.6541 11.2412 32.2778C12.2255 29.9015 13.8924 27.8704 16.031 26.4415C18.1697 25.0125 20.684 24.2498 23.2561 24.2498C25.8282 24.2498 28.3426 25.0125 30.4812 26.4415C32.6198 27.8704 34.2867 29.9015 35.271 32.2778C36.2553 34.6541 36.5129 37.269 36.0111 39.7916C35.5093 42.3143 34.2707 44.6316 32.452 46.4503L23.2561 55.6462ZM23.2561 42.8955C21.76 42.8955 20.3252 42.3012 19.2673 41.2433C18.2094 40.1854 17.6151 38.7506 17.6151 37.2545C17.6151 35.7584 18.2094 34.3236 19.2673 33.2657C20.3252 32.2078 21.76 31.6134 23.2561 31.6134C24.7522 31.6134 26.187 32.2078 27.2449 33.2657C28.3028 34.3236 28.8972 35.7584 28.8972 37.2545C28.8972 38.7506 28.3028 40.1854 27.2449 41.2433C26.187 42.3012 24.7522 42.8955 23.2561 42.8955Z" fill="#1E80F6" stroke="white" stroke-width="0.5"/>
<path d="M56.4124 32.6786L56.5891 32.8553L56.7659 32.6786L64.0561 25.3884L63.8793 25.2116L64.0561 25.3884C65.5327 23.9116 66.5383 22.0301 66.9456 19.9818C67.353 17.9336 67.1438 15.8105 66.3446 13.8811C65.5453 11.9517 64.1919 10.3026 62.4555 9.14239C60.719 7.98216 58.6775 7.3629 56.5891 7.3629C54.5007 7.3629 52.4592 7.98216 50.7228 9.14239C48.9864 10.3026 47.6329 11.9517 46.8337 13.8811C46.0345 15.8105 45.8253 17.9336 46.2326 19.9818C46.64 22.0301 47.6455 23.9116 49.1222 25.3884L49.299 25.2116L49.1222 25.3884L56.4124 32.6786ZM56.5891 36.3132L47.3933 27.1173C45.5745 25.2986 44.3359 22.9813 43.8342 20.4586C43.3324 17.936 43.5899 15.3211 44.5742 12.9448C45.5586 10.5685 47.2254 8.53743 49.364 7.10845C51.5027 5.67946 54.017 4.91675 56.5891 4.91675C59.1612 4.91675 61.6756 5.67946 63.8142 7.10845C65.9528 8.53743 67.6197 10.5685 68.604 12.9448C69.5883 15.3211 69.8459 17.936 69.3441 20.4586C68.8423 22.9813 67.6037 25.2986 65.785 27.1173L56.5891 36.3132ZM56.5891 23.5625C55.093 23.5625 53.6582 22.9682 52.6003 21.9103C51.5424 20.8524 50.9481 19.4176 50.9481 17.9215C50.9481 16.4254 51.5424 14.9906 52.6003 13.9327C53.6582 12.8748 55.093 12.2804 56.5891 12.2804C58.0852 12.2804 59.52 12.8748 60.5779 13.9327C61.6358 14.9906 62.2302 16.4254 62.2302 17.9215C62.2302 19.4176 61.6358 20.8524 60.5779 21.9103C59.52 22.9682 58.0852 23.5625 56.5891 23.5625Z" fill="#1E80F6" stroke="white" stroke-width="0.5"/>
<path d="M56.412 71.3453L56.5888 71.5221L56.7655 71.3453L64.0557 64.0552L63.8789 63.8784L64.0557 64.0551C65.5323 62.5784 66.5379 60.6969 66.9453 58.6486C67.3526 56.6003 67.1434 54.4772 66.3442 52.5478C65.545 50.6184 64.1915 48.9694 62.4551 47.8091C60.7186 46.6489 58.6771 46.0296 56.5888 46.0296C54.5004 46.0296 52.4589 46.6489 50.7224 47.8091C48.986 48.9694 47.6326 50.6184 46.8333 52.5478C46.0341 54.4772 45.8249 56.6003 46.2323 58.6486C46.6396 60.6969 47.6452 62.5784 49.1218 64.0551L49.2986 63.8784L49.1218 64.0552L56.412 71.3453ZM56.5888 74.9799L47.3929 65.7841C45.5742 63.9653 44.3356 61.6481 43.8338 59.1254C43.332 56.6027 43.5896 53.9879 44.5739 51.6116C45.5582 49.2352 47.225 47.2042 49.3637 45.7752C51.5023 44.3462 54.0167 43.5835 56.5888 43.5835C59.1609 43.5835 61.6752 44.3462 63.8138 45.7752C65.9525 47.2042 67.6193 49.2352 68.6036 51.6116C69.588 53.9879 69.8455 56.6027 69.3437 59.1254C68.8419 61.6481 67.6034 63.9653 65.7846 65.7841L56.5888 74.9799ZM56.5888 62.2293C55.0927 62.2293 53.6578 61.6349 52.5999 60.577C51.542 59.5191 50.9477 58.0843 50.9477 56.5882C50.9477 55.0921 51.542 53.6573 52.5999 52.5994C53.6578 51.5415 55.0927 50.9472 56.5888 50.9472C58.0849 50.9472 59.5197 51.5415 60.5776 52.5994C61.6355 53.6573 62.2298 55.0921 62.2298 56.5882C62.2298 58.0843 61.6355 59.5191 60.5776 60.577C59.5197 61.6349 58.0849 62.2293 56.5888 62.2293Z" fill="#1E80F6" stroke="white" stroke-width="0.5"/>
</svg>
